<svg xmlns="http://www.w3.org/2000/svg" width="44" height="43.999" viewBox="0 0 44 43.999"><defs><style>.a{fill:#f01;}.b{fill:#fff;}.c{fill:#ef0;}.d{fill:#9f0;}</style></defs><g transform="translate(-3 -1.001)"><rect class="a" width="17" height="17" rx="3" transform="translate(3 3)"/><path class="b" d="M46.138,9.419,38.581,1.862a2.945,2.945,0,0,0-4.162,0L26.862,9.419a2.943,2.943,0,0,0,0,4.162l7.557,7.557a2.948,2.948,0,0,0,4.162,0l7.557-7.557a2.943,2.943,0,0,0,0-4.162Z"/><path class="c" d="M3,0H14a3,3,0,0,1,3,3V14a3,3,0,0,1-3,3H3a3,3,0,0,1-3-3V3A3,3,0,0,1,3,0Z" transform="translate(28 28)"/><rect class="d" width="17" height="17" rx="3" transform="translate(3 28)"/></g></svg>