<svg xmlns="http://www.w3.org/2000/svg" xmlns:xlink="http://www.w3.org/1999/xlink" width="410" height="360" viewBox="0 0 410 360"><defs><style>.a{fill:url(#a);}.b{fill:#fff;}.c{filter:url(#b);}</style><radialGradient id="a" cx="0.085" cy="0.096" r="1.13" gradientTransform="matrix(0.993, 0.117, -0.138, 1.173, 0.014, -0.026)" gradientUnits="objectBoundingBox"><stop offset="0" stop-color="#dee7f7"/><stop offset="1" stop-color="#667691"/></radialGradient><filter id="b" x="0" y="0" width="410" height="360" filterUnits="userSpaceOnUse"><feOffset dy="10" input="SourceAlpha"/><feGaussianBlur stdDeviation="10" result="c"/><feFlood flood-opacity="0.4"/><feComposite operator="in" in2="c"/><feComposite in="SourceGraphic"/></filter></defs><g transform="translate(-352 -280)"><g class="c" transform="matrix(1, 0, 0, 1, 352, 280)"><rect class="a" width="350" height="300" rx="75" transform="translate(30 20)"/></g><path class="b" d="M30,49.5a6,6,0,1,0-6-6A6.018,6.018,0,0,0,30,49.5Zm18-27H45v-6a15,15,0,0,0-30,0v6H12a6.018,6.018,0,0,0-6,6v30a6.018,6.018,0,0,0,6,6H48a6.018,6.018,0,0,0,6-6v-30A6.018,6.018,0,0,0,48,22.5Zm-27.3-6a9.3,9.3,0,1,1,18.6,0v6H20.7ZM48,58.5H12v-30H48Z" transform="translate(527 417)"/></g></svg>